<svg xmlns="http://www.w3.org/2000/svg" width="15" height="17" viewBox="0 0 15 17" fill="currentColour">
  <path d="M1 8.3792C1 7.09607 1 6.4545 1.25486 5.89056C1.50971 5.32662 1.98834 4.9091 2.94559 4.07405L3.87416 3.26402C5.60439 1.75467 6.4695 1 7.5 1C8.5305 1 9.39561 1.75467 11.1258 3.26402L12.0544 4.07405C13.0117 4.9091 13.4903 5.32662 13.7451 5.89056C14 6.4545 14 7.09607 14 8.3792V12.3865C14 14.1685 14 15.0595 13.4561 15.6131C12.9121 16.1667 12.0366 16.1667 10.2857 16.1667H4.71429C2.96335 16.1667 2.08789 16.1667 1.54394 15.6131C1 15.0595 1 14.1685 1 12.3865V8.3792Z" stroke="white" stroke-width="1.5"/>
  <path d="M9.66671 16.1667V11.75C9.66671 11.1977 9.21899 10.75 8.66671 10.75H6.33337C5.78109 10.75 5.33337 11.1977 5.33337 11.75V16.1667" stroke="white" stroke-width="1.5" stroke-linecap="round" stroke-linejoin="round"/>
</svg>