<svg width="66" height="76" viewBox="0 0 66 76" fill="none" xmlns="http://www.w3.org/2000/svg">
<path d="M39.91 0H25.81C11.56 0 0 11.73 0 26.19V36.78C0 51.24 11.56 62.97 25.81 62.97H39.91C54.17 62.97 65.72 51.24 65.72 36.78V26.19C65.72 11.73 54.16 0 39.91 0ZM62.57 36.13C62.57 49.21 52.12 59.82 39.22 59.82H26.51C13.61 59.82 3.16 49.21 3.16 36.13V27.35C3.15 14.26 13.61 3.65 26.51 3.65H39.22C52.12 3.65 62.57 14.26 62.57 27.34V36.12V36.13Z" fill="white"/>
<path d="M40.0699 17.45C40.0699 17.45 36.5199 15.14 33.1899 15.14C31.5799 15.14 27.6599 15.33 23.7399 19.51C19.8199 23.69 20.9399 35.17 20.9399 35.17C18.6599 33.05 16.9599 30.02 16.9599 26.13C16.9599 17.64 23.9999 13.27 29.7199 13.27C34.9899 13.27 38.6599 16.2 38.6599 16.2L40.3999 15.72C40.3999 15.72 35.8599 10.33 28.3399 10.33C20.8199 10.33 11.3999 15.66 11.3999 26.33C11.3999 37 20.9199 40.99 20.9199 40.99V45.62C20.9199 48.58 25.3599 52.05 26.5799 52.05C27.7999 52.05 27.7399 49.86 27.7399 48.58V42.54C28.8299 42.54 30.4999 42.41 30.4999 42.41C30.4999 42.41 30.4599 43.44 30.4999 45.5C30.5599 48.72 34.6099 52.06 35.7099 52.06C36.8099 52.06 37.2499 50.71 37.2499 49.62V43.06C37.2499 43.06 53.6499 43.57 53.6499 29.49C53.6499 15.41 40.0799 17.47 40.0799 17.47L40.0699 17.45ZM30.4599 28.2V38.73C30.4599 38.73 29.0099 38.79 27.8599 38.64V25.75C27.8599 24.4 28.7299 19.87 34.2299 20.06C34.2299 20.06 30.4699 23.34 30.4699 28.21L30.4599 28.2ZM37.3599 27.28C37.3599 23.13 41.7999 21.78 41.7999 21.78C41.7999 21.78 42.4799 23.32 42.5199 26.12C42.6599 34.41 37.3599 36.87 37.3599 36.87V27.27V27.28ZM40.4599 40.62C39.1699 40.62 37.3599 40.14 37.3599 40.14C37.3599 40.14 44.5899 35.48 44.5899 26.46C44.5899 24.05 43.7699 21.44 43.7699 21.44C48.4999 21.44 51.8199 23.22 51.8199 29.74C51.8199 38.96 42.5799 40.62 40.4499 40.62H40.4599Z" fill="white"/>
<path d="M10.3399 67.65V70.26H10.1199C9.94994 69.57 9.63994 69.05 9.17994 68.68C8.71994 68.31 8.19994 68.13 7.61994 68.13C7.12994 68.13 6.68994 68.27 6.27994 68.54C5.86994 68.81 5.57994 69.16 5.38994 69.6C5.14994 70.16 5.02994 70.78 5.02994 71.47C5.02994 72.16 5.11994 72.76 5.28994 73.31C5.46994 73.86 5.73994 74.28 6.11994 74.57C6.49994 74.85 6.97994 75 7.57994 75C8.06994 75 8.51994 74.9 8.92994 74.69C9.33994 74.48 9.76994 74.12 10.2199 73.62V74.27C9.77994 74.71 9.32994 75.03 8.84994 75.23C8.37994 75.43 7.81994 75.53 7.18994 75.53C6.35994 75.53 5.61994 75.37 4.96994 75.05C4.31994 74.73 3.81994 74.26 3.46994 73.66C3.11994 73.06 2.93994 72.41 2.93994 71.73C2.93994 71.01 3.12994 70.33 3.51994 69.69C3.90994 69.05 4.42994 68.55 5.09994 68.19C5.75994 67.83 6.45994 67.66 7.20994 67.66C7.75994 67.66 8.33994 67.78 8.94994 68.01C9.29994 68.14 9.52994 68.21 9.61994 68.21C9.73994 68.21 9.84994 68.17 9.93994 68.08C10.0299 67.99 10.0899 67.85 10.1199 67.67H10.3399V67.65Z" fill="white"/>
<path d="M14.18 71.94V74.03C14.18 74.44 14.21 74.7 14.26 74.81C14.31 74.92 14.4 75 14.54 75.06C14.67 75.12 14.92 75.16 15.27 75.16V75.35H11.29V75.16C11.65 75.16 11.9 75.13 12.03 75.06C12.16 74.99 12.25 74.91 12.3 74.81C12.35 74.71 12.38 74.45 12.38 74.04V69.14C12.38 68.73 12.35 68.47 12.3 68.36C12.25 68.25 12.16 68.17 12.03 68.11C11.9 68.05 11.65 68.02 11.3 68.02V67.83H14.71C15.83 67.83 16.64 68.02 17.13 68.41C17.62 68.8 17.86 69.28 17.86 69.86C17.86 70.35 17.7 70.77 17.39 71.12C17.07 71.47 16.64 71.71 16.09 71.83C15.72 71.92 15.09 71.96 14.2 71.96L14.18 71.94ZM14.18 68.25V71.51C14.31 71.51 14.4 71.52 14.47 71.52C14.94 71.52 15.3 71.39 15.56 71.12C15.81 70.85 15.94 70.43 15.94 69.87C15.94 69.31 15.81 68.9 15.56 68.64C15.31 68.38 14.93 68.25 14.42 68.25H14.18Z" fill="white"/>
<path d="M24.5199 71.94V74.03C24.5199 74.44 24.5499 74.7 24.5999 74.81C24.6499 74.92 24.7399 75 24.8799 75.06C25.0099 75.12 25.2599 75.16 25.6099 75.16V75.35H21.6299V75.16C21.9899 75.16 22.2399 75.13 22.3699 75.06C22.4999 74.99 22.5899 74.91 22.6399 74.81C22.6899 74.71 22.7199 74.45 22.7199 74.04V69.14C22.7199 68.73 22.6899 68.47 22.6399 68.36C22.5899 68.25 22.4999 68.17 22.3699 68.11C22.2399 68.05 21.9899 68.02 21.6399 68.02V67.83H25.0499C26.1699 67.83 26.9799 68.02 27.4699 68.41C27.9599 68.8 28.1999 69.28 28.1999 69.86C28.1999 70.35 28.0399 70.77 27.7299 71.12C27.4099 71.47 26.9799 71.71 26.4299 71.83C26.0599 71.92 25.4299 71.96 24.5399 71.96L24.5199 71.94ZM24.5199 68.25V71.51C24.6499 71.51 24.7399 71.52 24.8099 71.52C25.2799 71.52 25.6399 71.39 25.8999 71.12C26.1499 70.85 26.2799 70.43 26.2799 69.87C26.2799 69.31 26.1499 68.9 25.8999 68.64C25.6499 68.38 25.2699 68.25 24.7599 68.25H24.5199Z" fill="white"/>
<path d="M31.68 71.92V74.05C31.68 74.46 31.71 74.71 31.76 74.82C31.81 74.93 31.9 75.01 32.03 75.07C32.16 75.13 32.41 75.16 32.76 75.16V75.35H28.76V75.16C29.12 75.16 29.37 75.13 29.5 75.06C29.63 75 29.72 74.91 29.77 74.81C29.82 74.71 29.85 74.45 29.85 74.05V69.13C29.85 68.72 29.82 68.47 29.77 68.36C29.72 68.25 29.63 68.17 29.5 68.11C29.37 68.05 29.12 68.02 28.77 68.02V67.83H32.4C33.35 67.83 34.04 67.89 34.48 68.02C34.92 68.15 35.28 68.38 35.55 68.72C35.83 69.06 35.97 69.46 35.97 69.91C35.97 70.47 35.76 70.93 35.35 71.29C35.08 71.52 34.71 71.69 34.23 71.81L36.11 74.36C36.36 74.69 36.53 74.89 36.64 74.97C36.8 75.08 36.98 75.15 37.19 75.16V75.36H34.73L32.21 71.93H31.7L31.68 71.92ZM31.68 68.24V71.52H32.01C32.54 71.52 32.95 71.47 33.21 71.38C33.48 71.29 33.68 71.12 33.84 70.87C33.99 70.63 34.07 70.31 34.07 69.91C34.07 69.34 33.93 68.92 33.65 68.64C33.37 68.37 32.92 68.23 32.3 68.23H31.68V68.24Z" fill="white"/>
<path d="M41.86 75.16V75.35H37.79V75.16H38.05C38.28 75.16 38.46 75.12 38.6 75.04C38.7 74.99 38.78 74.9 38.83 74.77C38.87 74.68 38.89 74.45 38.89 74.06V69.09C38.89 68.7 38.87 68.46 38.83 68.36C38.79 68.26 38.7 68.18 38.57 68.11C38.44 68.04 38.27 68 38.05 68H37.79V67.81H41.86V68H41.6C41.37 68 41.19 68.04 41.06 68.12C40.96 68.17 40.88 68.26 40.83 68.39C40.79 68.48 40.77 68.71 40.77 69.1V74.07C40.77 74.46 40.79 74.7 40.84 74.8C40.88 74.9 40.97 74.98 41.1 75.05C41.23 75.12 41.4 75.16 41.62 75.16H41.88H41.86Z" fill="white"/>
<path d="M48.3099 72.78L50.4499 67.81H53.6099V68H53.3599C53.1299 68 52.9499 68.04 52.8099 68.12C52.7099 68.17 52.6399 68.26 52.5799 68.39C52.5399 68.48 52.5199 68.72 52.5199 69.1V74.07C52.5199 74.46 52.5399 74.7 52.5799 74.8C52.6199 74.9 52.7099 74.98 52.8399 75.05C52.9699 75.12 53.1399 75.16 53.3599 75.16H53.6099V75.35H49.5399V75.16H49.7899C50.0199 75.16 50.1999 75.12 50.3399 75.04C50.4399 74.99 50.5099 74.9 50.5699 74.77C50.6099 74.68 50.6299 74.45 50.6299 74.06V68.48L47.6199 75.34H47.4799L44.4299 68.53V73.83C44.4299 74.2 44.4299 74.43 44.4599 74.52C44.5099 74.71 44.6199 74.86 44.7899 74.98C44.9599 75.1 45.2199 75.16 45.5799 75.16V75.35H42.8999V75.16H42.9799C43.1499 75.16 43.3099 75.14 43.4699 75.08C43.6199 75.02 43.7299 74.94 43.8099 74.85C43.8899 74.75 43.9499 74.62 43.9899 74.44C43.9899 74.4 43.9999 74.21 43.9999 73.87V69.11C43.9999 68.72 43.9799 68.48 43.9399 68.38C43.8999 68.28 43.8099 68.2 43.6799 68.13C43.5499 68.06 43.3699 68.02 43.1499 68.02H42.8999V67.83H46.0899L48.2999 72.8L48.3099 72.78Z" fill="white"/>
<path d="M59.3 73.2H56.56L56.22 73.93C56.11 74.18 56.06 74.38 56.06 74.54C56.06 74.75 56.15 74.91 56.32 75.01C56.42 75.07 56.68 75.12 57.09 75.14V75.33H54.49V75.14C54.77 75.1 55 74.99 55.18 74.8C55.36 74.62 55.58 74.23 55.85 73.65L58.64 67.65H58.75L61.57 73.82C61.84 74.41 62.06 74.78 62.23 74.94C62.36 75.06 62.55 75.12 62.78 75.14V75.33H59V75.14H59.16C59.46 75.14 59.68 75.1 59.8 75.02C59.88 74.96 59.93 74.87 59.93 74.76C59.93 74.69 59.92 74.62 59.9 74.55C59.9 74.52 59.83 74.37 59.73 74.13L59.3 73.19V73.2ZM59.11 72.79L57.94 70.22L56.75 72.79H59.11Z" fill="white"/>
</svg>
